<?xml version="1.0" encoding="UTF-8" standalone="no"?>
<svg
   width="9mm"
   height="10mm"
   viewBox="-4 -5 9 10"
   version="1.1"
   xmlns="http://www.w3.org/2000/svg">
  <defs
     id="defs10" />
  <style>
    path {
      fill: #000000;
    }
    @media (prefers-color-scheme: dark) {
      path {
        fill: #ffffff;
      }
    }
  </style>
  <path
      d="m 0.74595388,-3 v 2.5 h -1.5 V -3 H -1.7540461 v 6 h 0.99999998 V 0.5 h 1.5 V 3 H 1.7459539 V 0.5 l 0.17267,-0.005432 0.172,-0.016266 0.17062,-0.027023 0.16859,-0.03769 0.16591,-0.048187 0.16254,-0.058517 0.15855,-0.068619 0.15393,-0.07843 0.1487,-0.0879366 0.1429,-0.0971069 0.1365,-0.1058965 0.12958,-0.114242 0.12216,-0.122162 0.11425,-0.129578 0.10589,-0.136505 0.09711,-0.142898 0.08794,-0.148697 0.07843,-0.153934 0.06861,-0.15855 0.05852,-0.16254 0.04819,-0.16591 0.03769,-0.16859 0.02702,-0.17062 0.01627,-0.172 0.00543,-0.17267 -0.00543,-0.17267 -0.01627,-0.172 -0.02702,-0.17062 -0.03769,-0.16859 -0.04819,-0.16591 -0.05852,-0.16254 -0.06861,-0.15855 -0.07843,-0.15393 -0.08794,-0.1487 -0.09711,-0.1429 -0.10589,-0.1365 -0.11425,-0.12958 -0.12216,-0.12216 -0.12958,-0.11425 -0.1365,-0.10589 -0.1429,-0.09711 -0.1487,-0.08794 -0.15393,-0.07843 -0.15855,-0.06861 -0.16254,-0.05852 -0.16591,-0.04819 -0.16859,-0.03769 -0.17062,-0.02702 -0.172,-0.01627 L 1.7459539,-5 h -5.5 V 5 h 5.5 l 0.17267,-0.00543 0.172,-0.01627 0.17062,-0.02702 0.16859,-0.03769 0.16591,-0.04819 0.16254,-0.05852 0.15855,-0.06861 0.15393,-0.07843 0.1487,-0.08794 0.1429,-0.09711 0.1365,-0.10589 0.12958,-0.11425 0.12216,-0.12216 0.11425,-0.12958 0.10589,-0.1365 0.09711,-0.1429 0.08794,-0.1487 0.07843,-0.15393 0.06861,-0.15855 0.05852,-0.16254 0.04819,-0.16591 0.03769,-0.16859 0.02702,-0.17062 0.01627,-0.172 0.00543,-0.17267 -0.00543,-0.17267 -0.01627,-0.172 -0.02702,-0.17062 -0.03769,-0.16859 -0.04819,-0.16591 -0.05852,-0.16254 -0.06861,-0.15855 -0.07843,-0.153934 -0.08794,-0.148697 -0.09711,-0.142898 -0.08815,-0.113633 -0.0794,0.0616 -0.18186,0.123581 -0.18925,0.111923 -0.19591,0.099823 -0.2018,0.087325 -0.04454,0.01604 0.0318,0.0318 0.07271,0.08247 0.06738,0.08687 0.0618,0.09093 0.05595,0.09462 0.04992,0.09796 0.04367,0.10089 0.03723,0.10344 0.03067,0.10557 0.02398,0.10729 0.0172,0.10858 0.01035,0.10945 0.00346,0.10988 -0.00346,0.10988 -0.01035,0.10945 -0.0172,0.10858 -0.02398,0.10729 -0.03067,0.10557 -0.03723,0.10344 -0.04367,0.10089 -0.04992,0.09796 -0.05595,0.09462 -0.0618,0.09093 -0.06738,0.08687 -0.07271,0.08247 -0.07773,0.07773 -0.08247,0.07271 -0.08687,0.06738 -0.09093,0.0618 -0.09462,0.05595 -0.09796,0.04992 -0.10089,0.04367 -0.10344,0.03723 -0.10557,0.03067 -0.10729,0.02398 -0.10858,0.0172 -0.10945,0.01035 L 1.7459539,4 h -4.5 v -8 h 4.5 l 0.10988,0.00346 0.10945,0.01035 0.10858,0.0172 0.10729,0.02398 0.10557,0.03067 0.10344,0.03723 0.10089,0.04367 0.09796,0.04992 0.09462,0.05595 0.09093,0.0618 0.08687,0.06738 0.08247,0.07271 0.07773,0.07773 0.07271,0.08247 0.06738,0.08687 0.0618,0.09093 0.05595,0.09462 0.04992,0.09796 0.04367,0.10089 0.03723,0.10344 0.03067,0.10557 0.02398,0.10729 0.0172,0.10858 0.01035,0.10945 0.00346,0.10988 -0.00346,0.10988 -0.01035,0.10945 -0.0172,0.10858 -0.02398,0.10729 -0.03067,0.10557 -0.03723,0.10344 -0.04367,0.10089 -0.04992,0.09796 -0.05595,0.09462 -0.0618,0.09093 -0.06738,0.08687 -0.07271,0.08247 -0.07773,0.077731 -0.08247,0.072708 -0.08687,0.067382 -0.09093,0.061799 -0.09462,0.055954 -0.09796,0.049911 -0.10089,0.043671 -0.10344,0.037231 -0.10557,0.03067 -0.10729,0.023987 -0.10858,0.017197 -0.10945,0.010345 L 1.7459539,-0.5 V -3 Z"
      stroke-width="0" />
</svg>
